<mxfile host="app.diagrams.net" modified="2023-06-29T15:30:18.388Z" agent="Mozilla/5.0 (Macintosh; Intel Mac OS X 10_15_7) AppleWebKit/605.1.15 (KHTML, like Gecko) Version/16.5.1 Safari/605.1.15" etag="XHfAXYl4g9zNH1LH7UTr" version="21.5.2" type="device">
  <diagram name="Page-1" id="HTUwYHt3VzpCZc9oLMJZ">
    <mxGraphModel dx="794" dy="522" grid="1" gridSize="10" guides="1" tooltips="1" connect="1" arrows="1" fold="1" page="1" pageScale="1" pageWidth="827" pageHeight="1169" math="0" shadow="0">
      <root>
        <mxCell id="0" />
        <mxCell id="1" parent="0" />
        <mxCell id="_VvQWjx-WPApXE7I4COp-24" value="main" style="rounded=0;whiteSpace=wrap;html=1;labelBackgroundColor=none;labelPosition=center;verticalLabelPosition=top;align=left;verticalAlign=bottom;fontSize=20;strokeWidth=2;fillColor=none;" parent="1" vertex="1">
          <mxGeometry x="64" y="40" width="716" height="65" as="geometry" />
        </mxCell>
        <mxCell id="_VvQWjx-WPApXE7I4COp-27" value="core" style="rounded=0;whiteSpace=wrap;html=1;labelBackgroundColor=none;labelPosition=center;verticalLabelPosition=top;align=left;verticalAlign=bottom;fontSize=20;strokeWidth=2;fillColor=none;" parent="1" vertex="1">
          <mxGeometry x="320" y="140" width="460" height="180" as="geometry" />
        </mxCell>
        <mxCell id="_VvQWjx-WPApXE7I4COp-28" value="sync" style="text;html=1;fillColor=none;align=center;verticalAlign=middle;whiteSpace=wrap;rounded=0;strokeWidth=2;fontSize=16;labelBackgroundColor=none;strokeColor=default;" parent="1" vertex="1">
          <mxGeometry x="330" y="157.5" width="100" height="30" as="geometry" />
        </mxCell>
        <mxCell id="_VvQWjx-WPApXE7I4COp-44" value="client" style="text;html=1;fillColor=none;align=center;verticalAlign=middle;whiteSpace=wrap;rounded=0;strokeWidth=2;fontSize=16;labelBackgroundColor=none;strokeColor=default;" parent="1" vertex="1">
          <mxGeometry x="445" y="215" width="100" height="30" as="geometry" />
        </mxCell>
        <mxCell id="_VvQWjx-WPApXE7I4COp-45" value="timebase" style="text;html=1;fillColor=none;align=center;verticalAlign=middle;whiteSpace=wrap;rounded=0;strokeWidth=2;fontSize=16;labelBackgroundColor=none;strokeColor=default;" parent="1" vertex="1">
          <mxGeometry x="480" y="270" width="100" height="30" as="geometry" />
        </mxCell>
        <mxCell id="_VvQWjx-WPApXE7I4COp-46" value="server" style="text;html=1;fillColor=none;align=center;verticalAlign=middle;whiteSpace=wrap;rounded=0;strokeWidth=2;fontSize=16;labelBackgroundColor=none;strokeColor=default;" parent="1" vertex="1">
          <mxGeometry x="665" y="215" width="100" height="30" as="geometry" />
        </mxCell>
        <mxCell id="_VvQWjx-WPApXE7I4COp-16" value="net" style="rounded=0;whiteSpace=wrap;html=1;labelBackgroundColor=none;labelPosition=center;verticalLabelPosition=top;align=left;verticalAlign=bottom;fontSize=20;strokeWidth=2;fillColor=none;" parent="1" vertex="1">
          <mxGeometry x="430" y="350" width="350" height="160" as="geometry" />
        </mxCell>
        <mxCell id="_VvQWjx-WPApXE7I4COp-13" value="udp" style="text;html=1;fillColor=none;align=center;verticalAlign=middle;whiteSpace=wrap;rounded=0;strokeWidth=2;fontSize=16;labelBackgroundColor=none;strokeColor=default;" parent="1" vertex="1">
          <mxGeometry x="445" y="460" width="100" height="30" as="geometry" />
        </mxCell>
        <mxCell id="_VvQWjx-WPApXE7I4COp-14" value="scion" style="text;html=1;fillColor=none;align=center;verticalAlign=middle;whiteSpace=wrap;rounded=0;strokeWidth=2;fontSize=16;labelBackgroundColor=none;strokeColor=default;" parent="1" vertex="1">
          <mxGeometry x="555" y="460" width="100" height="30" as="geometry" />
        </mxCell>
        <mxCell id="_VvQWjx-WPApXE7I4COp-15" value="ntp" style="text;html=1;fillColor=none;align=center;verticalAlign=middle;whiteSpace=wrap;rounded=0;strokeWidth=2;fontSize=16;labelBackgroundColor=none;strokeColor=default;" parent="1" vertex="1">
          <mxGeometry x="665" y="460" width="100" height="30" as="geometry" />
        </mxCell>
        <mxCell id="_VvQWjx-WPApXE7I4COp-47" value="timeservice" style="text;html=1;strokeColor=none;fillColor=none;align=center;verticalAlign=middle;whiteSpace=wrap;rounded=0;fontSize=16;" parent="1" vertex="1">
          <mxGeometry x="392" y="60" width="60" height="30" as="geometry" />
        </mxCell>
        <mxCell id="_VvQWjx-WPApXE7I4COp-19" value="driver" style="rounded=0;whiteSpace=wrap;html=1;labelBackgroundColor=none;labelPosition=center;verticalLabelPosition=top;align=left;verticalAlign=bottom;fontSize=20;strokeWidth=2;fillColor=none;" parent="1" vertex="1">
          <mxGeometry x="64" y="140" width="236" height="65" as="geometry" />
        </mxCell>
        <mxCell id="_VvQWjx-WPApXE7I4COp-20" value="clock" style="text;html=1;fillColor=none;align=center;verticalAlign=middle;whiteSpace=wrap;rounded=0;strokeWidth=2;fontSize=16;labelBackgroundColor=none;strokeColor=default;" parent="1" vertex="1">
          <mxGeometry x="77" y="157.5" width="100" height="30" as="geometry" />
        </mxCell>
        <mxCell id="_VvQWjx-WPApXE7I4COp-21" value="mbg" style="text;html=1;fillColor=none;align=center;verticalAlign=middle;whiteSpace=wrap;rounded=0;strokeWidth=2;fontSize=16;labelBackgroundColor=none;strokeColor=default;" parent="1" vertex="1">
          <mxGeometry x="187" y="157.5" width="100" height="30" as="geometry" />
        </mxCell>
        <mxCell id="_VvQWjx-WPApXE7I4COp-10" value="base" style="rounded=0;whiteSpace=wrap;html=1;labelBackgroundColor=none;labelPosition=center;verticalLabelPosition=top;align=left;verticalAlign=bottom;fontSize=20;strokeWidth=2;fillColor=none;" parent="1" vertex="1">
          <mxGeometry x="64" y="350" width="350" height="160" as="geometry" />
        </mxCell>
        <mxCell id="_VvQWjx-WPApXE7I4COp-2" value="timebase" style="text;html=1;fillColor=none;align=center;verticalAlign=middle;whiteSpace=wrap;rounded=0;strokeWidth=2;fontSize=16;labelBackgroundColor=none;strokeColor=default;" parent="1" vertex="1">
          <mxGeometry x="132" y="370" width="100" height="30" as="geometry" />
        </mxCell>
        <mxCell id="_VvQWjx-WPApXE7I4COp-3" value="&lt;span style=&quot;caret-color: rgb(0, 0, 0); color: rgb(0, 0, 0); font-family: Helvetica; font-size: 16px; font-style: normal; font-variant-caps: normal; font-weight: 400; letter-spacing: normal; text-align: center; text-indent: 0px; text-transform: none; word-spacing: 0px; -webkit-text-stroke-width: 0px; background-color: rgb(251, 251, 251); text-decoration: none; float: none; display: inline !important;&quot;&gt;timemath&lt;/span&gt;" style="text;html=1;fillColor=none;align=center;verticalAlign=middle;whiteSpace=wrap;rounded=0;strokeWidth=2;fontSize=16;labelBackgroundColor=none;strokeColor=default;" parent="1" vertex="1">
          <mxGeometry x="242" y="370" width="100" height="30" as="geometry" />
        </mxCell>
        <mxCell id="_VvQWjx-WPApXE7I4COp-4" value="metrics" style="text;html=1;fillColor=none;align=center;verticalAlign=middle;whiteSpace=wrap;rounded=0;strokeWidth=2;fontSize=16;labelBackgroundColor=none;strokeColor=default;" parent="1" vertex="1">
          <mxGeometry x="87" y="415" width="100" height="30" as="geometry" />
        </mxCell>
        <mxCell id="xHCFgI9b48PevKOFVy4T-2" value="&lt;span style=&quot;caret-color: rgb(0, 0, 0); color: rgb(0, 0, 0); font-family: Helvetica; font-size: 16px; font-style: normal; font-variant-caps: normal; font-weight: 400; letter-spacing: normal; text-align: center; text-indent: 0px; text-transform: none; word-spacing: 0px; -webkit-text-stroke-width: 0px; background-color: rgb(251, 251, 251); text-decoration: none; float: none; display: inline !important;&quot;&gt;crypto&lt;/span&gt;" style="text;html=1;fillColor=none;align=center;verticalAlign=middle;whiteSpace=wrap;rounded=0;strokeWidth=2;fontSize=16;labelBackgroundColor=none;strokeColor=default;" vertex="1" parent="1">
          <mxGeometry x="292" y="415" width="100" height="30" as="geometry" />
        </mxCell>
        <mxCell id="xHCFgI9b48PevKOFVy4T-3" value="ntske" style="text;html=1;fillColor=none;align=center;verticalAlign=middle;whiteSpace=wrap;rounded=0;strokeWidth=2;fontSize=16;labelBackgroundColor=none;strokeColor=default;" vertex="1" parent="1">
          <mxGeometry x="555" y="415" width="100" height="30" as="geometry" />
        </mxCell>
        <mxCell id="xHCFgI9b48PevKOFVy4T-4" value="nts" style="text;html=1;fillColor=none;align=center;verticalAlign=middle;whiteSpace=wrap;rounded=0;strokeWidth=2;fontSize=16;labelBackgroundColor=none;strokeColor=default;" vertex="1" parent="1">
          <mxGeometry x="555" y="370" width="100" height="30" as="geometry" />
        </mxCell>
        <mxCell id="xHCFgI9b48PevKOFVy4T-5" value="benchmark" style="text;html=1;fillColor=none;align=center;verticalAlign=middle;whiteSpace=wrap;rounded=0;strokeWidth=2;fontSize=16;labelBackgroundColor=none;strokeColor=default;" vertex="1" parent="1">
          <mxGeometry x="665" y="60" width="100" height="30" as="geometry" />
        </mxCell>
        <mxCell id="xHCFgI9b48PevKOFVy4T-6" value="config" style="text;html=1;fillColor=none;align=center;verticalAlign=middle;whiteSpace=wrap;rounded=0;strokeWidth=2;fontSize=16;labelBackgroundColor=none;strokeColor=default;" vertex="1" parent="1">
          <mxGeometry x="620" y="270" width="100" height="30" as="geometry" />
        </mxCell>
      </root>
    </mxGraphModel>
  </diagram>
</mxfile>
